<?xml version="1.0" standalone="no"?>
<!DOCTYPE svg PUBLIC "-//W3C//DTD SVG 20010904//EN"
 "http://www.w3.org/TR/2001/REC-SVG-20010904/DTD/svg10.dtd">
<svg version="1.0" xmlns="http://www.w3.org/2000/svg"
 width="500.000000pt" height="500.000000pt" viewBox="0 0 500.000000 500.000000"
 preserveAspectRatio="xMidYMid meet">

<g transform="translate(0.000000,500.000000) scale(0.100000,-0.100000)"
fill="#3b82f6" stroke="none">
<path d="M2280 3705 c-145 -29 -325 -112 -446 -206 -213 -164 -366 -434 -398
-701 l-7 -56 103 5 c57 3 104 7 105 8 2 1 10 39 19 85 52 274 239 496 512 608
48 19 117 40 155 46 l67 10 0 108 c0 124 8 117 -110 93z"/>
<path d="M2618 3713 c-2 -5 -2 -53 0 -108 l3 -101 74 -12 c142 -22 294 -102
413 -216 151 -144 221 -276 266 -506 5 -25 6 -25 107 -23 56 1 103 3 104 5 10
10 -40 219 -70 293 -140 346 -410 575 -775 656 -94 20 -117 23 -122 12z"/>
<path d="M2428 3401 l4 -79 -42 -7 c-122 -21 -266 -138 -311 -252 -48 -124
-22 -273 66 -370 68 -76 125 -101 311 -138 89 -18 177 -41 195 -52 103 -60
103 -180 -1 -250 -63 -44 -70 -36 -70 77 l0 100 -82 0 -81 0 7 -100 c4 -67 3
-100 -4 -100 -52 0 -143 94 -157 163 -3 15 -10 27 -16 27 -6 0 -54 -12 -106
-26 -53 -15 -102 -28 -109 -30 -9 -3 -7 -16 8 -56 53 -141 171 -246 325 -288
l60 -17 3 -84 3 -84 72 0 72 0 5 84 5 84 54 14 c131 33 237 120 294 241 27 57
31 78 31 147 0 97 -29 170 -94 235 -60 60 -127 87 -291 115 -180 32 -198 38
-236 78 -42 44 -53 69 -53 119 0 57 28 100 81 126 l44 22 8 -92 c4 -51 9 -93
10 -94 1 -1 35 -4 75 -6 l72 -4 0 93 c0 77 3 93 15 93 45 0 129 -77 141 -128
12 -54 12 -55 52 -48 20 3 71 9 113 13 l76 6 -13 50 c-20 76 -64 156 -116 209
-50 52 -166 114 -230 124 l-38 7 0 78 0 79 -78 0 -77 0 3 -79z"/>
<path d="M1848 2743 l-108 -4 0 -79 0 -80 125 0 125 0 -6 73 c-6 82 -10 98
-21 95 -4 -1 -56 -4 -115 -5z"/>
<path d="M3040 2716 c0 -19 5 -57 12 -85 l11 -51 104 0 103 0 0 79 0 78 -77 7
c-42 3 -93 6 -115 6 -37 0 -38 -1 -38 -34z"/>
<path d="M1435 2523 c15 -108 36 -189 68 -262 106 -246 297 -442 552 -567 106
-52 248 -94 315 -94 l30 0 0 104 0 104 -42 7 c-159 26 -316 107 -446 230 -135
127 -213 261 -253 431 l-21 94 -105 0 -104 0 6 -47z"/>
<path d="M3370 2547 c0 -36 -38 -163 -69 -232 -61 -134 -158 -253 -276 -340
-130 -95 -215 -133 -342 -155 l-73 -12 0 -105 0 -106 59 6 c131 14 352 110
492 214 127 94 252 249 326 403 38 77 78 212 88 293 l7 57 -106 0 c-104 0
-106 -1 -106 -23z"/>
</g>
</svg>
